<svg xmlns="http://www.w3.org/2000/svg" version="1.1" viewBox="0 0 3000 2250" width="3000" height="2250">
<defs/><!--ITEM: Illustration background 1--><g transform="translate(-56.25 -54.375) rotate(0.0 1538.4375 1154.0625)  scale(3.84609375 3.846875)"><svg width="800.0" height="600.0" viewBox="0.0 0.0 800.0 600.0"><path style="fill:#E6E6E6;" d="M672.876,476.948l12.227-3.821c0.983-0.655,2.074-1.092,3.057-1.965l-18.996,6.114  C670.474,477.166,671.675,477.166,672.876,476.948z M664.251,476.948l27.62-8.952c0.546-0.437,0.873-0.983,1.419-1.419  l-30.895,9.825C663.05,476.729,663.705,476.838,664.251,476.948z M659.448,475.747l36.135-11.572  c0.437-0.327,0.546-0.764,0.983-1.201l-38.101,12.118C658.793,475.528,659.12,475.528,659.448,475.747z M656.609,473.891  l41.485-13.319c0.218-0.327,0.437-0.764,0.655-1.092l-42.795,13.756C656.063,473.563,656.391,473.782,656.609,473.891z   M654.535,471.816l45.197-14.411c0.218-0.328,0.218-0.655,0.437-1.092l-46.179,14.847  C654.317,471.38,654.426,471.707,654.535,471.816z M653.225,469.633l48.035-15.284c0-0.327,0.218-0.655,0.218-1.092l-48.69,15.611  C652.898,469.087,653.007,469.415,653.225,469.633z M652.024,467.231l49.891-16.048c0-0.328,0.109-0.655,0.218-1.092l-50.437,16.048  C651.806,466.685,651.915,466.904,652.024,467.231z M651.151,464.83l51.419-16.485c0-0.327,0.109-0.655,0.109-0.983l-51.856,16.703  C650.932,464.175,651.042,464.502,651.151,464.83z M650.714,461.882c0.109,0.109-0.109,0.218,0,0.327l52.293-16.703  c0-0.327,0.109-0.655,0.109-0.983l-52.075,16.594C650.932,461.336,650.823,461.554,650.714,461.882z M653.443,458.17  c-0.109,0.109-0.218,0.328-0.437,0.328l50.109-16.048c0-0.328-0.109-0.546,0-0.873l-48.799,15.721  C653.88,457.624,653.662,457.952,653.443,458.17z M655.845,455.004l46.834-14.956c0-0.328-0.109-0.546-0.218-0.873l-46.179,14.847  C656.282,454.349,656.063,454.568,655.845,455.004z M657.374,451.729l45.088-14.411c-0.109-0.327-0.109-0.546-0.218-0.873  l-44.433,14.301C657.483,451.183,657.483,451.511,657.374,451.729z M658.138,448.781l43.668-13.865  c-0.109-0.328-0.218-0.437-0.218-0.873l-43.122,13.865C658.247,448.236,658.138,448.454,658.138,448.781z M658.356,445.943  l42.467-13.537c-0.109-0.327-0.218-0.437-0.327-0.764l-42.249,13.428C658.356,445.397,658.356,445.725,658.356,445.943z   M658.138,443.214l41.267-13.21c-0.109-0.327-0.218-0.437-0.328-0.764l-41.048,13.1  C658.138,442.668,658.138,443.105,658.138,443.214z M657.592,440.703l40.284-12.991c-0.109-0.327-0.437-0.546-0.546-0.655  l-40.175,12.882C657.374,440.266,657.483,440.484,657.592,440.703z M695.365,424.982l-39.192,12.445  c0.109,0.327,0.218,0.437,0.328,0.764l39.52-12.664C696.02,425.419,695.693,425.201,695.365,424.982z M693.072,423.017  l-38.21,12.227c0.109,0.328,0.437,0.546,0.546,0.655l38.537-12.336C693.618,423.563,693.291,423.236,693.072,423.017z   M690.016,421.27l-36.463,11.572c0.109,0.328,0.218,0.437,0.328,0.764l37.227-12.009C690.671,421.598,690.452,421.38,690.016,421.27  z M686.195,419.851c-0.109,0.109-0.218-0.109-0.327,0l-32.205,10.262c-0.109,0.218-0.109,0.655-0.109,0.983l34.061-10.917  C687.068,420.179,686.631,419.96,686.195,419.851z M678.007,419.524l-20.852,6.659c-0.655,0.546-1.419,0.983-2.074,1.528  l26.419-8.406C680.409,419.415,679.099,419.415,678.007,419.524z"/>
<g>
	
		<linearGradient id="SVGID_1_-i1" gradientUnits="userSpaceOnUse" x1="5958.4717" y1="-2529.595" x2="7354.1338" y2="-2529.595" gradientTransform="matrix(0.1 0 0 -0.1 0 18)">
		<stop offset="0" style="stop-color:#B9D3FD"/>
		<stop offset="1" style="stop-color:#89B3F4"/>
	</linearGradient>
	<path style="fill:url(#SVGID_1_-i1);" d="M734.666,291.794c1.528,4.585-0.218,9.498-2.511,13.756   c-6.223,11.681-16.266,21.288-28.275,26.856c-6.659,3.166-13.865,5.022-20.742,7.86c-19.978,8.297-36.245,24.891-43.996,45.088   c2.293-13.974-5.022-27.839-13.974-38.865c-8.843-11.026-19.542-20.961-25.873-33.625c-5.459-10.917-5.568-27.074,5.459-32.315   c8.079-3.821,18.232,0.437,26.529-3.057c2.948-1.31,5.568-3.93,5.458-7.096c-0.437-8.079-16.376-7.533-16.812-15.611   c-0.437-9.28,24.018-6.55,20.852-15.393c-1.31-3.712-6.55-4.804-8.297-8.297c-1.856-3.493-1.747-8.406,1.419-10.917   c4.039-3.275,10.153-0.655,15.284-1.856c5.786-1.31,9.498-7.205,10.699-13.1c1.201-5.895,0.546-11.9,1.419-17.795   c2.074-14.52,13.974-27.074,28.275-30.131c14.301-3.057,30.24,3.712,37.991,16.157c3.166,5.131,4.913,12.009,1.528,16.921   c-2.948,4.148-9.279,6.878-8.734,11.9c0.655,6.878,13.428,7.533,13.646,14.411c0.218,8.079-16.376,8.079-15.939,16.157   c0.218,3.603,4.039,5.677,6.332,8.515c4.367,5.24,2.62,14.301-3.384,17.576c-2.402,1.31-5.24,1.856-7.096,3.712   c-4.804,4.694-0.109,12.991,5.568,16.485C725.169,282.624,732.592,285.353,734.666,291.794z"/>
	
		<linearGradient id="SVGID_2_-i1" gradientUnits="userSpaceOnUse" x1="6414.0796" y1="-2855.1492" x2="7869.9307" y2="-2855.1492" gradientTransform="matrix(0.1 0 0 -0.1 0 18)">
		<stop offset="0" style="stop-color:#DEEAFE"/>
		<stop offset="1" style="stop-color:#E9F1FE"/>
	</linearGradient>
	<path style="fill:url(#SVGID_2_-i1);" d="M692.745,292.34c3.384-1.856,6.987-3.603,9.716-6.441c5.568-6.114,5.24-15.284,5.677-23.581   c0.437-8.297,3.384-18.013,11.354-20.197c6.659-1.856,15.066,2.183,19.978-2.62c1.856-1.747,2.62-4.367,3.93-6.55   c5.677-9.498,20.633-8.734,28.93-1.419c8.188,7.314,11.354,18.668,14.083,29.367c0.983,3.93,1.092,9.389-2.729,10.48   c-3.712,0.983-7.424-3.603-10.917-2.183c-2.838,1.092-3.057,5.131-1.965,8.079c0.983,2.838,2.729,5.786,2.074,8.843   c-1.31,5.677-9.279,6.004-14.956,4.476c-5.677-1.528-12.991-3.057-16.266,1.856c3.603,11.463,6.659,25.437-1.419,34.498   c-9.279,10.371-26.419,9.28-40.284,10.59c-25.764,2.402-43.996,22.052-58.516,43.559   C640.561,345.069,661.195,309.48,692.745,292.34z"/>
</g>
<g>
	<path style="fill:#FFFFFF;" d="M660.43,364.72c-0.109,0-0.109,0-0.218,0c-0.328-0.109-0.437-0.437-0.328-0.655   c13.101-40.066,33.952-67.904,72.053-95.961c7.096-5.24,28.494-14.083,37.773-14.847c0.218,0,0.546,0.218,0.546,0.546   s-0.218,0.546-0.546,0.546c-8.843,0.764-30.349,9.607-37.118,14.629c-37.991,27.948-58.734,55.568-71.725,95.415   C660.867,364.502,660.649,364.72,660.43,364.72z"/>
</g>
<path style="fill:#FFFFFF;" d="M680.627,247.252l-4.367-12.009c-1.528-0.109-3.166,0.109-4.694,0.655l4.694,12.882  c0.218,0.764-0.109,1.528-0.873,1.747c-0.764,0.218-1.528-0.109-1.747-0.873l-4.694-12.664c-1.419,0.873-2.62,2.074-3.603,3.384  l3.93,10.699c0.218,0.764-0.109,1.528-0.873,1.747c-0.764,0.218-1.528-0.109-1.747-0.873l-3.057-8.406  c-1.747,4.367-1.856,9.935,0.109,15.393c0,0.109,0.109,0.218,0.109,0.328c-0.983,0.546-2.074,1.201-2.948,1.965  c-2.729,1.965-6.223,5.349-7.424,10.153l1.31,0.328c1.092-4.367,4.367-7.533,6.878-9.28c0.873-0.655,1.747-1.201,2.729-1.747  c2.074,4.585,5.458,8.297,9.17,10.262l-2.948-7.969c-0.218-0.764,0.109-1.528,0.873-1.747s1.528,0.109,1.747,0.873l3.821,10.262  c1.638,0.437,3.275,0.546,4.913,0.218l-4.367-12.009c-0.218-0.764,0.109-1.528,0.873-1.747c0.764-0.218,1.528,0.109,1.747,0.873  l4.476,12.118c1.419-0.655,2.729-1.638,3.821-2.729l-4.039-10.917c-0.218-0.764,0.109-1.528,0.873-1.747  c0.764-0.218,1.528,0.109,1.747,0.873l3.493,9.389c1.092-1.638,2.074-3.384,2.948-5.24l-2.183-5.895  c-0.218-0.764,0.109-1.528,0.873-1.747c0.764-0.218,1.528,0.109,1.747,0.873l1.201,3.166c2.183-5.24,3.603-10.371,5.459-12.009  c-3.057-0.655-7.314-3.493-12.009-6.114l1.528,4.039c0.218,0.764-0.109,1.528-0.873,1.747c-0.764,0.218-1.528-0.109-1.747-0.873  l-2.511-6.878c-1.856-0.873-3.712-1.528-5.568-1.965l3.821,10.59c0.218,0.764-0.109,1.528-0.873,1.747  C681.719,248.344,680.954,248.016,680.627,247.252z"/>
<rect x="342.853" y="380.986" style="fill:#D6D7D8;" width="121.835" height="135.481"/>
<rect x="267.415" y="512.101" style="fill:#428DFC;" width="272.709" height="10.48"/>
<linearGradient id="SVGID_3_-i1" gradientUnits="userSpaceOnUse" x1="1361.9219" y1="-2771.7815" x2="6713.4741" y2="-2771.7815" gradientTransform="matrix(0.1 0 0 -0.1 0 18)">
	<stop offset="0" style="stop-color:#EEEEEE"/>
	<stop offset="1" style="stop-color:#D6D7D8"/>
</linearGradient>
<rect x="136.192" y="121.924" style="fill:url(#SVGID_3_-i1);" width="535.155" height="346.508"/>
<rect x="145.581" y="130.549" style="fill:#FFFFFF;" width="516.378" height="285.372"/>
<g>
	
		<rect x="379.613" y="437.736" transform="matrix(-0.7071 -0.7071 0.7071 -0.7071 343.4806 1027.6814)" style="fill:#A1C3FC;" width="9.934" height="9.934"/>
	
		<rect x="398.775" y="437.721" transform="matrix(-0.7071 -0.7071 0.7071 -0.7071 376.2033 1041.2053)" style="fill:#FFFFFF;" width="9.934" height="9.934"/>
	
		<rect x="417.938" y="437.751" transform="matrix(-0.7071 -0.7071 0.7071 -0.7071 408.8945 1054.8064)" style="fill:#1D72D8;" width="9.934" height="9.934"/>
</g>
<path style="fill:#D3E3FE;" d="M660.539,81.422c0,0.218,0,0.437,0,0.655c0,9.061,7.314,16.376,16.376,16.376  s16.376-7.314,16.376-16.376c0-0.218,0-0.437,0-0.655H660.539z"/>
<path style="fill:#A1C3FC;" d="M719.164,41.574c0,0.328,0,0.764,0,1.092c0,14.956,12.118,27.074,27.074,27.074  s27.074-12.118,27.074-27.074c0-0.328,0-0.764,0-1.092C773.313,41.574,719.164,41.574,719.164,41.574z"/>
<path style="fill:#F4F4F4;" d="M32.698,13.19c0,0.655,0,1.201,0,1.856c0,25.218,20.524,45.743,45.743,45.743  s45.743-20.524,45.743-45.743c0-0.655,0-1.201,0-1.856C124.183,13.19,32.698,13.19,32.698,13.19z"/>
<path style="fill:#E7EFFE;" d="M80.624,13.19c0,0.437,0,0.873,0,1.31c0,18.341,14.847,33.188,33.188,33.188S147,32.841,147,14.5  c0-0.437,0-0.873,0-1.31C147,13.19,80.624,13.19,80.624,13.19z"/>
<g>
	
		<linearGradient id="SVGID_4_-i1" gradientUnits="userSpaceOnUse" x1="4547.144" y1="-2848.5498" x2="5952.8911" y2="-2848.5498" gradientTransform="matrix(-0.0964 0.0265 -0.0265 -0.0964 553.6074 -2.2324)">
		<stop offset="0" style="stop-color:#B9D3FD"/>
		<stop offset="1" style="stop-color:#89B3F4"/>
	</linearGradient>
	<path style="fill:url(#SVGID_4_-i1);" d="M61.41,450.31c-0.218,4.803,2.729,9.17,6.114,12.664c9.17,9.716,21.507,16.376,34.607,18.559   c7.314,1.201,14.847,1.201,22.271,2.074c21.616,2.729,41.812,14.52,54.804,31.987c-6.004-12.991-2.511-28.384,3.166-41.485   c5.677-13.1,13.428-25.546,16.157-39.52c2.402-12.009-1.856-27.839-13.974-29.913c-8.952-1.528-17.686,5.349-26.638,4.039   c-3.166-0.437-6.55-2.293-7.205-5.459c-1.747-7.969,13.974-11.681,12.118-19.651c-2.074-9.17-25.109,0-24.345-9.28   c0.328-3.93,5.022-6.332,5.895-10.262s-0.546-8.624-4.258-10.153c-4.804-2.074-10.044,2.074-15.284,2.293   c-6.004,0.328-11.135-4.476-13.865-9.825s-3.712-11.463-6.114-16.921c-5.895-13.537-20.742-22.598-35.481-21.725   c-14.738,0.873-28.384,11.681-32.642,25.873c-1.747,5.786-1.638,12.991,3.057,16.921c3.93,3.275,10.808,4.148,11.681,9.17   c1.201,6.878-11.026,10.917-9.389,17.686c1.856,7.969,18.122,3.493,19.76,11.463c0.764,3.603-2.402,6.659-3.821,9.935   c-2.838,6.223,1.31,14.52,7.969,16.157c2.62,0.655,5.568,0.327,7.969,1.638c5.895,3.275,3.603,12.555-0.983,17.467   C68.179,439.065,61.847,443.541,61.41,450.31z"/>
	
		<linearGradient id="SVGID_5_-i1" gradientUnits="userSpaceOnUse" x1="5005.2349" y1="-3177.0505" x2="6471.7524" y2="-3177.0505" gradientTransform="matrix(-0.0964 0.0265 -0.0265 -0.0964 553.6074 -2.2324)">
		<stop offset="0" style="stop-color:#DEEAFE"/>
		<stop offset="1" style="stop-color:#E9F1FE"/>
	</linearGradient>
	<path style="fill:url(#SVGID_5_-i1);" d="M102.458,439.72c-3.821-0.873-7.751-1.638-11.135-3.712   c-7.096-4.476-9.17-13.537-11.79-21.397c-2.62-7.86-8.079-16.594-16.376-16.594c-6.987,0-14.083,6.223-20.087,2.838   c-2.293-1.31-3.712-3.603-5.568-5.349c-7.969-7.642-22.38-2.948-28.384,6.332s-6.004,21.179-5.895,32.315   c0.109,4.039,1.419,9.389,5.459,9.389c3.821,0,6.223-5.459,10.044-5.022c3.057,0.327,4.367,4.258,4.148,7.314   c-0.218,3.057-1.092,6.332,0.328,9.061c2.729,5.24,10.699,3.384,15.721,0.327c5.022-3.057,11.79-6.441,16.266-2.511   c-0.437,12.118,0.328,26.528,10.59,33.079c11.79,7.533,28.166,1.965,41.922-0.437c25.655-4.585,48.69,9.716,68.45,26.747   C167.088,476.948,137.611,447.908,102.458,439.72z"/>
	<path style="fill:none;stroke:#428DFC;stroke-width:2;stroke-linecap:round;stroke-miterlimit:10;" d="M178.878,517.232   c-8.734-22.817-15.721-46.288-21.07-70.088"/>
	
		<ellipse transform="matrix(-0.2235 -0.9747 0.9747 -0.2235 -240.659 697.7426)" style="fill:#23286B;" cx="157.599" cy="444.732" rx="4.694" ry="12.445"/>
	<path style="fill:none;stroke:#428DFC;stroke-width:2;stroke-linecap:round;stroke-miterlimit:10;" d="M157.153,444.305   c-2.948-13.537-5.349-27.074-7.205-40.83"/>
	
		<ellipse transform="matrix(-0.3174 -0.9483 0.9483 -0.3174 -182.6591 669.1458)" style="fill:#23286B;" cx="149.504" cy="400.314" rx="5.568" ry="14.957"/>
	<path style="fill:none;stroke:#428DFC;stroke-width:2;stroke-linecap:round;stroke-miterlimit:10;" d="M149.402,399.873   c-1.419-11.354-2.511-22.708-3.275-34.061"/>
	
		<ellipse transform="matrix(-0.0106 -0.9999 0.9999 -0.0106 -213.3985 512.5897)" style="fill:#23286B;" cx="146.883" cy="361.865" rx="5.567" ry="14.956"/>
	<path style="fill:none;stroke:#428DFC;stroke-width:2;stroke-linecap:round;stroke-miterlimit:10;" d="M145.908,361.008   c-0.437-8.624-0.655-17.358-0.764-26.092"/>
	
		<ellipse transform="matrix(-0.0106 -0.9999 0.9999 -0.0106 -183.616 479.1787)" style="fill:#23286B;" cx="145.246" cy="330.426" rx="7.532" ry="20.087"/>
	<path style="fill:none;stroke:#428DFC;stroke-width:2;stroke-linecap:round;stroke-miterlimit:10;" d="M145.144,329.021   c0.109-5.786,0.218-11.572,0.437-17.358"/>
</g>
<path style="fill:#FFFFFF;" d="M132.808,484.917l4.367-12.009c1.528-0.109,3.166,0.109,4.694,0.655l-4.694,12.882  c-0.218,0.764,0.109,1.528,0.873,1.747s1.528-0.109,1.747-0.873l4.694-12.664c1.419,0.873,2.62,2.074,3.603,3.384l-3.93,10.699  c-0.218,0.764,0.109,1.528,0.873,1.747s1.528-0.109,1.747-0.873l3.057-8.406c1.747,4.367,1.856,9.935-0.109,15.393  c0,0.109-0.109,0.218-0.109,0.328c0.983,0.546,2.074,1.201,2.948,1.965c2.729,1.965,6.223,5.349,7.424,10.153l-1.31,0.328  c-1.092-4.367-4.367-7.533-6.878-9.28c-0.873-0.655-1.747-1.201-2.729-1.747c-2.074,4.585-5.459,8.297-9.17,10.262l2.948-7.969  c0.218-0.764-0.109-1.528-0.873-1.747c-0.764-0.218-1.528,0.109-1.747,0.873l-3.821,10.262c-1.638,0.437-3.275,0.546-4.913,0.218  l4.367-12.009c0.218-0.764-0.109-1.528-0.873-1.747s-1.528,0.109-1.747,0.873l-4.476,12.118c-1.419-0.655-2.729-1.638-3.821-2.729  l4.039-10.917c0.218-0.764-0.109-1.528-0.873-1.747c-0.764-0.218-1.528,0.109-1.747,0.873l-3.493,9.389  c-1.092-1.638-2.074-3.384-2.948-5.24l2.183-5.895c0.218-0.764-0.109-1.528-0.873-1.747s-1.528,0.109-1.747,0.873l-1.201,3.166  c-2.183-5.24-3.603-10.371-5.459-12.009c3.057-0.655,7.314-3.493,12.009-6.114l-1.528,4.039c-0.218,0.764,0.109,1.528,0.873,1.747  s1.528-0.109,1.747-0.873l2.511-6.878c1.856-0.873,3.712-1.528,5.568-1.965l-3.821,10.59c-0.218,0.764,0.109,1.528,0.873,1.747  C131.716,486.009,132.48,485.681,132.808,484.917z"/>
<path style="fill:#B3C9EE;" d="M109.555,136.007l-8.188-0.983c-0.764,0.109-1.528,0.109-2.293,0.328l12.773,1.419  C110.974,136.553,110.319,136.225,109.555,136.007z M114.576,138.3l-18.559-2.074c-0.437,0.109-0.764,0.328-1.201,0.437  l20.742,2.402C115.231,138.736,114.904,138.518,114.576,138.3z M117.087,140.265l-24.236-2.729  c-0.328,0.109-0.546,0.328-0.873,0.437l25.546,2.948C117.415,140.592,117.196,140.483,117.087,140.265z M118.288,142.121  l-27.839-3.166c-0.218,0.109-0.437,0.328-0.655,0.437l28.712,3.275C118.507,142.448,118.397,142.23,118.288,142.121z   M118.943,143.867l-30.349-3.493c-0.218,0.109-0.328,0.328-0.546,0.546l31.005,3.493  C118.943,144.195,118.943,143.977,118.943,143.867z M119.162,145.505l-32.205-3.712c-0.109,0.218-0.328,0.328-0.437,0.546  l32.642,3.712C119.162,145.942,119.162,145.723,119.162,145.505z M119.162,147.252l-33.515-3.821  c-0.109,0.218-0.218,0.328-0.437,0.546l33.843,3.93C119.162,147.579,119.162,147.47,119.162,147.252z M119.052,148.889l-34.498-3.93  c-0.109,0.218-0.218,0.328-0.328,0.546l34.825,3.93C119.052,149.326,119.052,149.108,119.052,148.889z M118.507,150.745  c0-0.109,0.109-0.109,0.109-0.218l-35.044-4.039c-0.109,0.218-0.218,0.328-0.328,0.546l34.935,4.039  C118.288,150.964,118.397,150.854,118.507,150.745z M115.996,152.164c0.109,0,0.218-0.109,0.328-0.109l-33.625-3.821  c-0.109,0.218-0.109,0.328-0.218,0.546l32.751,3.712C115.559,152.383,115.777,152.274,115.996,152.164z M113.703,153.365  l-31.441-3.603c-0.109,0.218-0.109,0.328-0.109,0.546l31.005,3.493C113.266,153.693,113.485,153.584,113.703,153.365z   M111.956,154.894l-30.24-3.493c0,0.218-0.109,0.328-0.109,0.546l29.804,3.384C111.738,155.221,111.847,155.003,111.956,154.894z   M110.755,156.422l-29.258-3.384c0,0.218,0,0.328-0.109,0.546l28.93,3.275C110.537,156.75,110.646,156.64,110.755,156.422z   M109.882,158.06l-28.494-3.275c0,0.218,0,0.328,0,0.546l28.275,3.275C109.664,158.387,109.773,158.169,109.882,158.06z   M109.227,159.697l-27.729-3.166c0,0.218,0,0.328,0,0.546l27.511,3.166C109.118,160.025,109.227,159.806,109.227,159.697z   M108.899,161.335l-27.074-3.057c0,0.218,0.109,0.437,0.109,0.546l26.965,3.057C108.899,161.662,108.899,161.444,108.899,161.335z   M82.589,160.571l26.31,3.057c0-0.218,0-0.328,0-0.546l-26.529-3.057C82.371,160.134,82.48,160.352,82.589,160.571z M83.463,162.317  l25.655,2.948c0-0.218-0.109-0.437-0.109-0.546l-25.873-2.948C83.244,161.881,83.354,162.099,83.463,162.317z M84.773,164.173  l24.454,2.838c0-0.218,0-0.328,0-0.546l-25-2.838C84.445,163.737,84.554,163.955,84.773,164.173z M86.629,166.029  c0.109,0,0.109,0.109,0.218,0.109l21.616,2.511c0.109-0.109,0.218-0.328,0.328-0.546l-22.817-2.62  C86.192,165.592,86.41,165.811,86.629,166.029z M91.323,168.322l13.974,1.638c0.546-0.109,1.092-0.218,1.638-0.328l-17.686-2.074  C89.904,167.776,90.668,168.103,91.323,168.322z"/>
<path style="fill:#B3C9EE;" d="M687.068,497.253l12.773,0.546c1.201-0.218,2.402-0.328,3.493-0.764l-19.978-0.655  C684.775,496.598,685.867,497.035,687.068,497.253z M678.989,494.306l29.039,0.983c0.655-0.218,1.092-0.546,1.856-0.873  l-32.424-1.201C678.007,493.76,678.443,494.087,678.989,494.306z M674.95,491.576l37.882,1.31c0.546-0.218,0.764-0.546,1.31-0.764  l-39.956-1.528C674.404,491.14,674.732,491.249,674.95,491.576z M672.767,488.847l43.559,1.528c0.327-0.218,0.655-0.546,0.983-0.764  l-44.869-1.638C672.439,488.41,672.657,488.738,672.767,488.847z M671.566,486.227l47.489,1.747  c0.328-0.218,0.437-0.546,0.764-0.873l-48.472-1.747C671.566,485.681,671.566,486.009,671.566,486.227z M671.02,483.716  l50.328,1.856c0.109-0.328,0.437-0.546,0.655-0.873l-51.092-1.856C671.02,483.061,671.02,483.389,671.02,483.716z M670.802,480.987  l52.402,1.965c0.109-0.328,0.327-0.546,0.655-0.873l-52.948-2.074C670.802,480.55,670.802,480.659,670.802,480.987z   M670.802,478.476l53.93,1.965c0.109-0.328,0.328-0.546,0.437-0.873l-54.476-1.965C670.802,477.821,670.802,478.148,670.802,478.476  z M671.457,475.528c0,0.218-0.109,0.218-0.109,0.328l54.804,2.074c0.109-0.327,0.328-0.546,0.437-0.873l-54.585-2.074  C671.784,475.201,671.566,475.31,671.457,475.528z M675.168,473.017c-0.218,0-0.328,0.218-0.546,0.218l52.62,1.856  c0.109-0.327,0.109-0.546,0.328-0.873l-51.201-1.856C675.823,472.581,675.496,472.799,675.168,473.017z M678.553,470.834  l49.127,1.856c0.109-0.328,0.109-0.546,0.109-0.873l-48.472-1.747C679.208,470.288,678.88,470.506,678.553,470.834z   M681.064,468.323l47.271,1.747c0-0.328,0.109-0.546,0.109-0.873l-46.616-1.638C681.391,467.777,681.282,468.105,681.064,468.323z   M682.81,465.812l45.743,1.747c0-0.327,0-0.546,0.109-0.873l-45.197-1.638C683.029,465.266,682.919,465.485,682.81,465.812z   M683.902,463.192l44.542,1.638c0-0.327,0-0.546-0.109-0.873l-44.214-1.747C684.23,462.646,684.12,462.974,683.902,463.192z   M684.775,460.572l43.341,1.638c0-0.327,0-0.546-0.109-0.873l-43.013-1.638C684.885,460.026,684.775,460.354,684.775,460.572z   M685.103,457.952l42.358,1.528c0-0.327-0.218-0.655-0.218-0.873l-42.14-1.528C684.994,457.406,685.103,457.733,685.103,457.952z   M725.933,455.987l-41.157-1.638c0,0.328,0,0.546,0.109,0.873l41.485,1.528C726.37,456.642,726.151,456.314,725.933,455.987z   M724.404,453.367l-40.066-1.528c0,0.327,0.218,0.655,0.218,0.873l40.502,1.528C724.732,454.022,724.623,453.694,724.404,453.367z   M722.112,450.637l-38.21-1.528c0,0.328,0,0.546,0.109,0.873l39.083,1.419C722.658,451.292,722.439,450.965,722.112,450.637z   M719.055,448.017c-0.218,0-0.218-0.109-0.328-0.109l-33.843-1.31c-0.109,0.218-0.327,0.546-0.437,0.873l35.699,1.31  C719.71,448.672,719.383,448.345,719.055,448.017z M711.522,445.07l-21.834-0.873c-0.873,0.218-1.638,0.437-2.511,0.655l27.62,1.092  C713.706,445.725,712.505,445.288,711.522,445.07z"/>
</svg></g><!--ITEM: Illustration component 2--><g transform="translate(1792.5 646.875) rotate(0.0 468.75 699.375)  scale(2.798507462686567 2.7975)"><svg width="335.0" height="500.0" viewBox="0.0 0.0 335.0 500.0"><g id="woman-i2">
	
		<linearGradient id="R_shoe_1_-i2" gradientUnits="userSpaceOnUse" x1="7778.3691" y1="7628.0737" x2="5696.8086" y2="7971.3496" gradientTransform="matrix(0.0741 0 0 0.0741 -207.4016 -94.8663)">
		<stop offset="0" style="stop-color:#3E8AF8"/>
		<stop offset="1" style="stop-color:#1479F2"/>
	</linearGradient>
	<path id="R_shoe-i2" fill="url(#R_shoe_1_-i2)" d="M320.592,459.812L335,499.996L233.281,500c0,0,5.215-10.058,22.603-17.507   c17.388-7.45,31.509-22.684,31.509-22.684L320.592,459.812"/>
	<path id="L_shoe-i2" fill="#428DFC" d="M243.566,459.812l14.408,40.184L156.255,500c0,0,5.215-10.058,22.603-17.507   c17.388-7.45,33.615-22.681,33.615-22.681H243.566"/>
	
		<linearGradient id="R_trousers_1_-i2" gradientUnits="userSpaceOnUse" x1="7701.4165" y1="6174.8306" x2="5836.1221" y2="5186.1235" gradientTransform="matrix(0.0741 0 0 0.0741 -207.4016 -94.8663)">
		<stop offset="0" style="stop-color:#23286B"/>
		<stop offset="1" style="stop-color:#151A4F"/>
	</linearGradient>
	<path id="R_trousers-i2" fill="url(#R_trousers_1_-i2)" d="M270.849,176.36c0,0,4.075,9.413-3.586,49.243l0,0   c1.808,20.913,5.923,41.561,12.269,61.57c10.215,31.15,62.223,121.652,41.06,172.639l-33.198-0.004   c0,0-44.636-114.42-51.787-145.569c-7.15-31.15-23.66-123.151-32.357-139.513l0,0L270.849,176.36"/>
	<path id="L_trousers-i2" fill="#23286B" d="M268.295,171.763c0,0,11.749,20.937-6.129,69.45s-18.388,63.323-17.367,76.599   c1.022,13.278,10.726,28.597,7.661,56.683c-3.065,28.087,5.688,31.811,3.646,54.279c-2.043,22.468-12.541,31.036-12.541,31.036   h-31.093c0,0-21.304-115.956-22.836-151.702c-1.533-35.746,26.065-98.897,25.028-133.793l0,0L268.295,171.763z"/>
	<path id="texture-i2" opacity="0.86" fill="#ffbeb6" enable-background="new    " d="M260.249,218.592   c-0.156-0.138-0.397-0.121-0.533,0.035c-0.001,0.001-0.001,0.001-0.002,0.002c-0.142,0.161-0.127,0.406,0.034,0.549   c0.161,0.142,0.406,0.127,0.55-0.034c0.001-0.001,0.001-0.001,0.002-0.002C260.432,218.975,260.411,218.733,260.249,218.592z    M238.887,248.323c-0.213,0.015-0.374,0.197-0.364,0.41c0.011,0.206,0.186,0.363,0.39,0.352c0.007,0,0.014-0.001,0.021-0.001   c0.213-0.015,0.374-0.197,0.364-0.41C239.282,248.462,239.098,248.305,238.887,248.323L238.887,248.323z M238.225,238.995   c-0.211,0.018-0.367,0.202-0.35,0.412l0,0c0.013,0.213,0.197,0.377,0.411,0.364c0.213-0.013,0.377-0.197,0.364-0.41l0,0   C238.624,239.147,238.44,238.988,238.225,238.995z M262.506,205.719c-0.192-0.07-0.404,0.03-0.474,0.224   c-0.002,0.005-0.003,0.012-0.005,0.018c-0.073,0.197,0.027,0.415,0.224,0.488c0.197,0.073,0.415-0.027,0.488-0.224   c0.003-0.008,0.005-0.018,0.008-0.025c0.07-0.192-0.03-0.404-0.224-0.474C262.517,205.723,262.512,205.721,262.506,205.719z    M257.241,239.019c-0.091-0.197-0.326-0.281-0.523-0.19c-0.197,0.091-0.281,0.326-0.19,0.523s0.326,0.281,0.523,0.19   c0.002-0.001,0.004-0.002,0.007-0.003C257.248,239.442,257.33,239.212,257.241,239.019z M253.069,230.655   c-0.091-0.197-0.326-0.281-0.523-0.19c-0.197,0.091-0.283,0.326-0.19,0.523c0.093,0.197,0.326,0.281,0.523,0.19   c0.002-0.001,0.005-0.002,0.007-0.003C253.076,231.079,253.158,230.85,253.069,230.655z M269.178,202.277   c-0.182-0.043-0.367,0.067-0.412,0.25c-0.045,0.182,0.067,0.367,0.25,0.412l0,0c0.182,0.043,0.367-0.067,0.412-0.25   C269.473,202.505,269.361,202.321,269.178,202.277z M265.254,234.755c-0.1-0.161-0.312-0.211-0.473-0.11   c-0.161,0.1-0.211,0.312-0.11,0.473c0.001,0.001,0.001,0.002,0.002,0.003c0.102,0.16,0.314,0.206,0.474,0.104   C265.305,235.124,265.353,234.915,265.254,234.755z M260.833,227.684c-0.101-0.16-0.313-0.209-0.474-0.107   c-0.16,0.101-0.209,0.313-0.108,0.474c0.101,0.16,0.313,0.209,0.474,0.107l0,0c0.159-0.094,0.211-0.301,0.116-0.461   C260.838,227.694,260.835,227.688,260.833,227.684L260.833,227.684z M256.414,220.6c-0.027-0.06-0.075-0.107-0.136-0.129   l-0.014-0.002c-0.105-0.047-0.227-0.037-0.325,0.024c-0.164,0.103-0.214,0.319-0.111,0.485c0.001,0.001,0.001,0.002,0.002,0.003   c0.102,0.159,0.313,0.206,0.474,0.107c0.075-0.043,0.126-0.118,0.14-0.204C256.482,220.79,256.472,220.682,256.414,220.6z    M230.414,240.385c-0.186-0.042-0.369,0.073-0.412,0.257c0,0.002-0.001,0.005-0.001,0.005c-0.048,0.177,0.058,0.361,0.236,0.407   c0.004,0.001,0.01,0.002,0.014,0.003c0.189,0.039,0.377-0.075,0.428-0.262C230.711,240.612,230.596,240.431,230.414,240.385z    M268.563,214.789c-0.153-0.111-0.369-0.077-0.479,0.076c-0.002,0.003-0.004,0.007-0.007,0.011   c-0.111,0.142-0.085,0.348,0.056,0.458c0.005,0.005,0.012,0.008,0.017,0.013c0.149,0.115,0.361,0.088,0.475-0.06   c0.003-0.004,0.005-0.008,0.01-0.013C268.744,215.118,268.713,214.905,268.563,214.789z M261.767,209.942   c-0.16-0.103-0.372-0.065-0.487,0.086c-0.11,0.159-0.072,0.375,0.086,0.487c0.162,0.104,0.379,0.058,0.483-0.103   C261.951,210.257,261.914,210.053,261.767,209.942L261.767,209.942z M248.157,236.7c-0.186,0.042-0.308,0.22-0.279,0.407   c0.033,0.186,0.209,0.31,0.394,0.278c0.188-0.03,0.317-0.204,0.292-0.392C248.53,236.802,248.349,236.672,248.157,236.7   L248.157,236.7z M246.783,228.475c-0.186,0.042-0.308,0.22-0.279,0.407c0.033,0.186,0.209,0.31,0.394,0.278   c0.181-0.025,0.308-0.192,0.281-0.374c-0.001-0.007-0.002-0.014-0.003-0.021C247.146,228.578,246.971,228.45,246.783,228.475z    M217.262,229.845c-0.155-0.109-0.369-0.077-0.485,0.073c-0.111,0.153-0.077,0.369,0.076,0.479   c0.003,0.002,0.007,0.004,0.011,0.007c0.142,0.111,0.348,0.085,0.457-0.056c0.004-0.005,0.008-0.012,0.013-0.018   c0.115-0.148,0.088-0.361-0.06-0.475C217.271,229.851,217.267,229.848,217.262,229.845L217.262,229.845z M264.616,214.27   c-0.076-0.084-0.208-0.089-0.291-0.013c-0.084,0.076-0.089,0.207-0.013,0.291c0.076,0.084,0.208,0.089,0.291,0.013l0,0   C264.684,214.483,264.689,214.356,264.616,214.27L264.616,214.27z M261.261,210.682c-0.076-0.084-0.207-0.089-0.291-0.013   s-0.089,0.207-0.013,0.291c0.076,0.084,0.207,0.089,0.291,0.013l0,0C261.328,210.894,261.335,210.767,261.261,210.682   L261.261,210.682z M268.485,204.259c-0.1-0.047-0.216-0.002-0.263,0.097c-0.001,0.002-0.002,0.004-0.002,0.007   c-0.043,0.105,0,0.226,0.101,0.279c0.102,0.04,0.217-0.004,0.265-0.103C268.63,204.433,268.585,204.312,268.485,204.259   L268.485,204.259z M254.94,217.34c-0.033-0.102-0.141-0.159-0.244-0.126c-0.005,0.002-0.012,0.004-0.019,0.007   c-0.104,0.035-0.16,0.148-0.124,0.251c0.001,0.003,0.002,0.007,0.003,0.011c0.046,0.1,0.158,0.152,0.263,0.121   C254.923,217.562,254.977,217.445,254.94,217.34L254.94,217.34z M268.188,219.117c-0.064-0.105-0.201-0.138-0.304-0.075   c-0.002,0.001-0.003,0.002-0.005,0.003c-0.109,0.063-0.145,0.202-0.083,0.31c0.003,0.005,0.005,0.011,0.01,0.015   c0.064,0.105,0.201,0.138,0.304,0.075c0.002-0.001,0.003-0.002,0.005-0.003C268.223,219.372,268.254,219.227,268.188,219.117   L268.188,219.117z M265.157,214.387c-0.064-0.105-0.2-0.138-0.304-0.074c-0.002,0.001-0.003,0.002-0.005,0.003   c-0.109,0.07-0.14,0.216-0.07,0.326c0.07,0.107,0.213,0.14,0.322,0.072c0.105-0.067,0.137-0.206,0.07-0.312   C265.164,214.398,265.16,214.392,265.157,214.387L265.157,214.387z M262.142,209.659c-0.07-0.11-0.214-0.144-0.325-0.074   c-0.11,0.07-0.144,0.214-0.074,0.325c0,0.001,0.001,0.001,0.001,0.002c-0.002,0.014,0.012,0.015,0.023,0.032   c0.078,0.081,0.203,0.098,0.301,0.042C262.177,209.913,262.21,209.77,262.142,209.659L262.142,209.659z M269.853,205.564   c-0.105-0.074-0.25-0.051-0.328,0.052c-0.074,0.105-0.049,0.25,0.056,0.323c0.003,0.002,0.005,0.005,0.01,0.007   c0.102,0.07,0.242,0.048,0.314-0.054C269.979,205.787,269.956,205.642,269.853,205.564L269.853,205.564z M256.544,220.659   c-0.019-0.124-0.135-0.21-0.259-0.191c-0.002,0-0.005,0.001-0.008,0.001l-0.014-0.002c-0.12,0.03-0.197,0.147-0.177,0.268   c0.019,0.124,0.135,0.21,0.259,0.191c0.002,0,0.005-0.001,0.008-0.001c0.033-0.01,0.063-0.024,0.089-0.042   C256.522,220.838,256.562,220.749,256.544,220.659z M255.286,214.933c-0.126,0.032-0.209,0.152-0.192,0.28   c0.034,0.124,0.156,0.202,0.283,0.178c0.121-0.024,0.202-0.144,0.177-0.265c0-0.001,0-0.002-0.001-0.003   C255.532,214.997,255.413,214.913,255.286,214.933L255.286,214.933z M268.614,200.009c-0.179-0.126-0.426-0.086-0.556,0.09   c-0.127,0.179-0.086,0.428,0.093,0.556c0.177,0.126,0.424,0.086,0.553-0.089C268.827,200.384,268.787,200.139,268.614,200.009   L268.614,200.009z M264.86,243.755c-0.22,0.034-0.371,0.235-0.342,0.455c0.036,0.216,0.24,0.363,0.456,0.328   c0.216-0.036,0.367-0.237,0.342-0.455C265.28,243.868,265.076,243.72,264.86,243.755L264.86,243.755z M263.358,234.242   c-0.216,0.036-0.364,0.24-0.328,0.457c0.036,0.216,0.24,0.364,0.456,0.328c0.216-0.036,0.364-0.24,0.328-0.457   C263.779,234.354,263.574,234.207,263.358,234.242L263.358,234.242z M261.869,224.73c-0.216,0.027-0.371,0.225-0.345,0.441   c0.026,0.216,0.225,0.371,0.441,0.345c0.005-0.001,0.012-0.001,0.018-0.002c0.22-0.034,0.371-0.235,0.342-0.455   C262.29,224.843,262.087,224.696,261.869,224.73L261.869,224.73z M260.368,215.218c-0.214,0.033-0.363,0.233-0.33,0.449   c0,0.002,0.001,0.005,0.001,0.008c0.035,0.216,0.239,0.365,0.455,0.33c0.216-0.035,0.365-0.239,0.33-0.455c0-0.001,0-0.002,0-0.003   c-0.033-0.214-0.234-0.363-0.449-0.33C260.372,215.217,260.37,215.217,260.368,215.218z M225.185,234.401   c-0.132,0.171-0.102,0.416,0.069,0.548c0.002,0.002,0.005,0.004,0.008,0.005c0.182,0.126,0.434,0.088,0.57-0.088 M267.634,208.187   c-0.114-0.189-0.359-0.25-0.546-0.137c-0.002,0.001-0.004,0.002-0.007,0.005c-0.187,0.12-0.244,0.364-0.132,0.554   c0.122,0.187,0.371,0.24,0.557,0.118C267.686,208.61,267.742,208.373,267.634,208.187L267.634,208.187z M246.083,238.674   c-0.21-0.05-0.422,0.078-0.471,0.29c-0.001,0.002-0.001,0.005-0.002,0.008c-0.053,0.211,0.072,0.426,0.281,0.486   c0.214,0.042,0.425-0.086,0.488-0.295C246.431,238.946,246.301,238.728,246.083,238.674L246.083,238.674L246.083,238.674z    M248.341,229.318c-0.204-0.054-0.414,0.067-0.468,0.273c-0.002,0.008-0.005,0.016-0.005,0.025   c-0.052,0.209,0.074,0.42,0.283,0.472l0,0c0.215,0.053,0.434-0.078,0.487-0.294v-0.001c0.054-0.204-0.067-0.414-0.271-0.468   C248.359,229.322,248.35,229.32,248.341,229.318L248.341,229.318z M270.381,202.15c-0.112-0.177-0.348-0.229-0.525-0.116   c-0.007,0.004-0.013,0.008-0.019,0.013c-0.181,0.118-0.233,0.361-0.117,0.542c0.124,0.182,0.369,0.233,0.556,0.118   c0.182-0.121,0.232-0.369,0.11-0.55C270.386,202.156,270.383,202.152,270.381,202.15L270.381,202.15z M251.905,241.782   c-0.216-0.046-0.43,0.093-0.475,0.311c-0.046,0.216,0.093,0.43,0.311,0.475c0.216,0.045,0.429-0.093,0.475-0.311   C252.26,242.039,252.121,241.826,251.905,241.782L251.905,241.782z M253.766,232.371c-0.22-0.034-0.429,0.107-0.477,0.325   c-0.034,0.212,0.103,0.415,0.313,0.462c0.216,0.046,0.43-0.093,0.475-0.311C254.116,232.631,253.979,232.421,253.766,232.371   L253.766,232.371z M255.61,222.971c-0.214-0.042-0.42,0.098-0.464,0.311c-0.042,0.213,0.098,0.42,0.311,0.463   c0.001,0,0.002,0,0.003,0c0.216,0.046,0.43-0.093,0.475-0.311C255.97,223.218,255.826,223.014,255.61,222.971L255.61,222.971z    M257.472,213.561c-0.211-0.042-0.417,0.093-0.46,0.303c-0.001,0.003-0.001,0.005-0.002,0.01c-0.039,0.213,0.1,0.42,0.313,0.462   c0.206,0.047,0.411-0.083,0.457-0.288c0.002-0.008,0.003-0.016,0.004-0.024c0.042-0.211-0.093-0.417-0.303-0.46   C257.479,213.562,257.475,213.562,257.472,213.561z M267.94,217.772c-0.214,0.048-0.353,0.257-0.316,0.473   c0.04,0.214,0.248,0.355,0.463,0.314c0.214-0.04,0.355-0.248,0.314-0.462c0-0.003-0.001-0.005-0.002-0.01   c-0.038-0.213-0.242-0.354-0.455-0.315C267.943,217.772,267.941,217.772,267.94,217.772z M266.046,208.373   c-0.216,0.046-0.356,0.255-0.316,0.473c0.05,0.216,0.265,0.352,0.482,0.302c0.207-0.048,0.343-0.249,0.308-0.458   C266.473,208.473,266.263,208.331,266.046,208.373L266.046,208.373z M271.699,198.984c-0.05-0.152-0.213-0.233-0.365-0.182   c-0.004,0.001-0.011,0.003-0.015,0.005c-0.154,0.06-0.229,0.233-0.169,0.388c0.001,0.002,0.002,0.004,0.003,0.007   c0.059,0.151,0.228,0.225,0.379,0.165c0.001,0,0.002-0.001,0.003-0.001c0.149-0.053,0.225-0.215,0.172-0.364   C271.704,198.996,271.701,198.99,271.699,198.984L271.699,198.984z M251.854,225.312c-0.141-0.072-0.314-0.015-0.386,0.126   c-0.004,0.01-0.01,0.019-0.013,0.028c-0.066,0.152,0.003,0.329,0.155,0.396c0.152,0.066,0.329-0.003,0.396-0.155   C252.072,225.554,252.004,225.378,251.854,225.312z M254.701,218.661c-0.149-0.068-0.325-0.004-0.394,0.144   c-0.001,0.003-0.003,0.007-0.005,0.01c-0.067,0.153,0.001,0.33,0.154,0.399c0.153,0.067,0.33-0.001,0.399-0.154   C254.922,218.907,254.853,218.728,254.701,218.661L254.701,218.661z M257.546,212.009c-0.153-0.067-0.33,0.001-0.399,0.154   c-0.069,0.153,0.002,0.33,0.154,0.399c0.153,0.067,0.33-0.001,0.399-0.154l0,0C257.765,212.255,257.697,212.079,257.546,212.009   L257.546,212.009z M267.135,217.438c-0.159-0.002-0.29,0.125-0.292,0.284c0,0.003,0,0.007,0,0.011   c-0.004,0.164,0.125,0.301,0.29,0.305c0.001,0,0.002,0,0.002,0c0.167-0.005,0.301-0.139,0.308-0.305   c-0.002-0.164-0.139-0.297-0.303-0.294C267.138,217.438,267.137,217.438,267.135,217.438L267.135,217.438z M267.232,210.196   c-0.167,0.005-0.301,0.139-0.308,0.305c-0.003,0.158,0.122,0.288,0.279,0.292c0.004,0,0.011,0,0.015,0   c0.159,0.01,0.295-0.112,0.304-0.27c0-0.007,0.001-0.014,0-0.022c0.005-0.164-0.125-0.301-0.29-0.305   C267.233,210.196,267.232,210.196,267.232,210.196L267.232,210.196z M267.31,202.967c-0.161,0-0.292,0.132-0.292,0.293v0.001   c-0.01,0.159,0.111,0.295,0.271,0.304c0.007,0,0.015,0,0.022,0c0.164,0.004,0.301-0.125,0.306-0.29c0-0.001,0-0.002,0-0.002   C267.61,203.107,267.477,202.972,267.31,202.967L267.31,202.967z M269.036,208.842c-0.089-0.019-0.178,0.036-0.198,0.125   c-0.019,0.089,0.036,0.178,0.125,0.198c0.005,0.001,0.01,0.002,0.014,0.002c0.09,0.012,0.174-0.051,0.187-0.141   C269.176,208.941,269.121,208.861,269.036,208.842L269.036,208.842z M269.715,204.946c-0.087-0.015-0.171,0.042-0.186,0.128   c-0.001,0.005-0.001,0.008-0.002,0.013c-0.021,0.078,0.027,0.16,0.105,0.181c0.007,0.002,0.015,0.003,0.022,0.003   c0.085,0.018,0.168-0.038,0.185-0.124c0-0.001,0-0.003,0.001-0.004C269.854,205.055,269.801,204.971,269.715,204.946   L269.715,204.946z M270.392,201.063c-0.085-0.016-0.169,0.038-0.185,0.124c0,0.001,0,0.002-0.001,0.005   c-0.019,0.089,0.037,0.177,0.126,0.199c0.087,0.015,0.171-0.042,0.186-0.129c0.001-0.005,0.001-0.008,0.001-0.013   c0.017-0.085-0.038-0.167-0.123-0.185C270.395,201.064,270.394,201.064,270.392,201.063L270.392,201.063z M264.456,215.03   c-0.116-0.077-0.274-0.046-0.35,0.07c-0.003,0.005-0.008,0.013-0.012,0.019c-0.08,0.11-0.056,0.264,0.053,0.346   c0.007,0.005,0.015,0.011,0.022,0.015c0.124,0.083,0.291,0.05,0.373-0.074l0,0c0.081-0.121,0.049-0.284-0.072-0.365   C264.465,215.037,264.46,215.032,264.456,215.03L264.456,215.03z M267.943,209.485c-0.127-0.077-0.295-0.039-0.376,0.088   c-0.081,0.121-0.049,0.284,0.072,0.365c0.004,0.003,0.011,0.007,0.016,0.01c0.116,0.077,0.274,0.046,0.35-0.07   c0.003-0.005,0.008-0.013,0.012-0.019c0.084-0.118,0.056-0.281-0.062-0.365C267.952,209.492,267.948,209.487,267.943,209.485   L267.943,209.485z M271.417,203.952c-0.127-0.077-0.295-0.039-0.376,0.088c-0.08,0.124-0.046,0.29,0.078,0.369   c0.002,0.002,0.005,0.003,0.01,0.005c0.128,0.076,0.297,0.035,0.373-0.093C271.578,204.195,271.54,204.033,271.417,203.952   L271.417,203.952z"/>
	<g id="pencil-i2">
		
			<linearGradient id="SVGID_1_-i2" gradientUnits="userSpaceOnUse" x1="4359.2852" y1="4647.5938" x2="5307.7095" y2="3961.5015" gradientTransform="matrix(0.0741 0 0 0.0741 -207.4016 -94.8663)">
			<stop offset="0" style="stop-color:#E94A47"/>
			<stop offset="0.8098" style="stop-color:#C63030"/>
		</linearGradient>
		<polygon fill="url(#SVGID_1_-i2)" points="256.356,332.966 240.729,338.761 33.41,123.738 49.039,117.944   "/>
		
			<linearGradient id="SVGID_2_-i2" gradientUnits="userSpaceOnUse" x1="5461.2148" y1="3734.4739" x2="4512.5571" y2="4511.5669" gradientTransform="matrix(0.0741 0 0 0.0741 -207.4016 -94.8663)">
			<stop offset="0" style="stop-color:#E94A47"/>
			<stop offset="0.8098" style="stop-color:#C63030"/>
		</linearGradient>
		<polygon fill="url(#SVGID_2_-i2)" points="272.999,317.352 279.38,301.958 72.281,86.723 65.901,102.119   "/>
		<polygon fill="#E94A47" points="49.039,117.944 256.356,332.966 272.999,317.352 65.901,102.119   "/>
	</g>
	
		<linearGradient id="R_hand_1_-i2" gradientUnits="userSpaceOnUse" x1="4208.0366" y1="4025.6245" x2="4562.7925" y2="4025.6245" gradientTransform="matrix(0.0741 0 0 0.0741 -207.4016 -94.8663)">
		<stop offset="0" style="stop-color:#FFBEB6"/>
		<stop offset="1" style="stop-color:#F2A19C"/>
	</linearGradient>
	<path id="R_hand-i2" fill="url(#R_hand_1_-i2)" d="M104.37,197.462c0,0,4.456-5.384,5.756-7.425c1.301-2.043,3.342,1.856,2.228,4.641   c-1.114,2.785-2.043,5.755-3.156,6.497c0,0,10.769-9.281,14.482-11.695c3.714-2.413,8.169,6.126,6.684,13.922   c-1.485,7.796-3.996,13.47-6.225,14.398C124.14,217.8,112.168,214.911,104.37,197.462z"/>
	
		<linearGradient id="R_hand-2_1_-i2" gradientUnits="userSpaceOnUse" x1="4893.8691" y1="3609.2632" x2="5252.5713" y2="3609.2632" gradientTransform="matrix(0.0741 0 0 0.0741 -207.4016 -94.8663)">
		<stop offset="0" style="stop-color:#FFBEB6"/>
		<stop offset="1" style="stop-color:#F2A19C"/>
	</linearGradient>
	<path id="R_hand-2-i2" fill="url(#R_hand-2_1_-i2)" d="M181.75,185.003c-8.123,0.047-15.264-0.369-15.264-0.369L155.17,172.87   c7.52-1.309,20.763-10.515,23.845-12.717L181.75,185.003z"/>
	
		<linearGradient id="L_hand_1_-i2" gradientUnits="userSpaceOnUse" x1="5668.666" y1="2857.8589" x2="6022.2925" y2="4009.1941" gradientTransform="matrix(0.0741 0 0 0.0741 -207.4016 -94.8663)">
		<stop offset="0.1291" style="stop-color:#428DFC"/>
		<stop offset="0.9987" style="stop-color:#1D72D8"/>
	</linearGradient>
	<path id="L_hand-i2" fill="url(#L_hand_1_-i2)" d="M241.446,174.472c-8.598,1.796-13.753,4.414-26.893,15.083   c-0.383,0.313-0.765,0.626-1.158,0.95c-13.997,11.481-30.357,6.128-30.357,6.128l-6.883-62.441c0,0,3.569,0.313,19.779-2.838   c3.981-0.64,7.882-1.708,11.633-3.186c6.929-3.07,9.582-8.364,11.819-21.582c1.669-9.87,1.217-22.578,0.405-32.483   c4.743-0.165,9.259-2.071,12.687-5.352c8.709,4.759,16.707,10.713,23.766,17.69c7.277,15.812,10.312,30.699,11.181,47.729   C268.931,163.421,250.299,172.631,241.446,174.472z"/>
	
		<linearGradient id="L_hand-2_1_-i2" gradientUnits="userSpaceOnUse" x1="4618.6309" y1="4754.7188" x2="5407.2412" y2="3928.2561" gradientTransform="matrix(0.0741 0 0 0.0741 -207.4016 -94.8663)">
		<stop offset="0" style="stop-color:#FFBEB6"/>
		<stop offset="1" style="stop-color:#F2A19C"/>
	</linearGradient>
	<path id="L_hand-2-i2" fill="url(#L_hand-2_1_-i2)" d="M214.855,220.938c-7.277,4.391-20.718,12.268-29.594,15.847   c-12.676,5.132-20.52,6.638-41.041,6.337s-18.399-23.549-18.399-23.549c5.84,6.101,12.964,6.658,15.989,6.96   c3.013,0.301,7.845-1.506,0.603-7.542c-7.242-6.036-3.024-11.468-2.422-9.963c0.603,1.506,6.037,5.132,17.206,12.974   c11.169,7.843,0.904,8.144,15.087,1.205c11.158-5.456,24.946-24.745,30.3-32.703L214.855,220.938z"/>
	
		<linearGradient id="sweater_1_-i2" gradientUnits="userSpaceOnUse" x1="5843.3604" y1="2544.6406" x2="6132.0298" y2="3554.9836" gradientTransform="matrix(0.0741 0 0 0.0741 -207.4016 -94.8663)">
		<stop offset="0.1291" style="stop-color:#428DFC"/>
		<stop offset="0.9987" style="stop-color:#1D72D8"/>
	</linearGradient>
	<path id="sweater-i2" fill="url(#sweater_1_-i2)" d="M298.605,188.617c-6.315,1.32-12.279,2.386-17.891,3.197   c-31.563,4.634-52.582,2.04-66.161-2.259c-5.365-1.61-10.475-3.97-15.179-7.008c-2.711-1.655-5.114-3.767-7.103-6.245   c7.37-14.214,12.167-31.661,15.295-48.134c3.404-18.284,5.369-36.807,5.875-55.398l1.796,0.869   c1.492,0.353,3.022,0.509,4.554,0.463c4.743-0.165,9.259-2.071,12.687-5.352c8.709,4.759,16.707,10.713,23.765,17.69   c4.196,4.055,8.08,8.419,11.622,13.056c16.164,21.189,13.243,29.819,22.109,42.364c0.023,0.023,0.035,0.058,0.058,0.081   C298.883,154.466,310.923,169.769,298.605,188.617z"/>
	
		<linearGradient id="L_sleeve_1_-i2" gradientUnits="userSpaceOnUse" x1="6076.6431" y1="3410.2419" x2="7121.7813" y2="6541.958" gradientTransform="matrix(0.0741 0 0 0.0741 -207.4016 -94.8663)">
		<stop offset="0.1291" style="stop-color:#428DFC"/>
		<stop offset="0.9987" style="stop-color:#1D72D8"/>
	</linearGradient>
	<path id="L_sleeve-i2" fill="url(#L_sleeve_1_-i2)" d="M280.715,191.815c-1.573,1.253-3.261,2.353-5.04,3.29   c-8.76,4.553-13.441,8.943-24.773,25.138c-11.332,16.184-30.126,15.384-30.126,15.384l-21.401-53.081l-4.253-10.542   c0,0,3.847-0.718,19.953-8.827c16.105-8.098,19.57-12.129,17.357-32.958c-2.213-20.829-18.991-57.448-18.991-57.448l1.796,0.869   c1.492,0.353,3.022,0.509,4.554,0.463c4.743-0.165,9.259-2.071,12.687-5.352c8.709,4.759,16.707,10.713,23.766,17.69   c4.196,4.055,8.08,8.419,11.622,13.056c16.164,21.189,13.243,29.819,22.109,42.364c0.023,0.023,0.035,0.058,0.058,0.081   c0.36,1.031,0.718,2.062,1.066,3.116C299.555,170.174,289.417,184.899,280.715,191.815z"/>
	
		<linearGradient id="neck_1_-i2" gradientUnits="userSpaceOnUse" x1="5665.7583" y1="2519.0122" x2="5768.0024" y2="2025.8365" gradientTransform="matrix(0.0741 0 0 0.0741 -207.4016 -94.8663)">
		<stop offset="0" style="stop-color:#FFBEB6"/>
		<stop offset="1" style="stop-color:#F2A19C"/>
	</linearGradient>
	<path id="neck-i2" fill="url(#neck_1_-i2)" d="M226.508,55.997c-0.447,2.364-1.057,4.695-1.831,6.973   c-1.314,3.856-2.981,7.583-4.983,11.133c-1.5,0.039-3-0.117-4.461-0.463l-1.761-0.845c-0.013-0.005-0.024-0.014-0.035-0.023   c0.271-5.584,0.186-11.179-0.255-16.751c0.707,0.093,1.414,0.162,2.121,0.197C219.035,56.53,222.791,56.456,226.508,55.997z"/>
	<path id="face-i2" fill="#FFBEB6" d="M226.508,55.997c-6.975,0.927-21.309,0.753-25.804-5.7c-5.376-7.727-3.488-15.084-4.983-15.743   c-1.495-0.649-4.357-2.815-3.813-4.471c0.533-1.645,6.419-4.843,9.154-10.576c0.255-0.532,0.509-1.043,0.788-1.529l0.012-0.012   c0.052-0.124,0.115-0.244,0.186-0.36c0.029-0.058,0.064-0.112,0.104-0.162c0.014-0.017,0.025-0.037,0.035-0.058   c0.047-0.07,0.093-0.151,0.139-0.232c0.36-0.567,0.904-1.402,1.634-2.34c0.336-0.44,0.718-0.915,1.147-1.402   c0.474-0.554,1.026-1.112,1.609-1.669c0.042-0.04,0.083-0.08,0.125-0.12c0.145-0.138,0.28-0.276,0.432-0.413   c0.266-0.243,0.544-0.475,0.834-0.706c0.22-0.186,0.452-0.36,0.683-0.522c0.104-0.081,0.22-0.162,0.336-0.243   c0.209-0.151,0.429-0.301,0.649-0.44c0.045-0.035,0.09-0.066,0.139-0.093c0,0.012-0.012,0.023-0.012,0.047   c-0.162,0.491-0.283,0.995-0.36,1.506c-0.035,0.162-0.058,0.348-0.081,0.532c-0.08,0.692-0.1,1.39-0.058,2.085   c0,0.116,0.012,0.232,0.023,0.36c0.012,0.116,0.023,0.243,0.035,0.371c0.023,0.255,0.058,0.522,0.104,0.788   c0,0.035,0.012,0.058,0.012,0.093c0.056,0.393,0.135,0.784,0.232,1.17c0.023,0.151,0.07,0.29,0.104,0.44   c0.001,0.01,0.004,0.017,0.012,0.023c0.07,0.29,0.162,0.591,0.266,0.892v0.023c0.047,0.151,0.104,0.301,0.162,0.452   c0.237,0.685,0.516,1.354,0.835,2.005c0.104,0.232,0.232,0.463,0.36,0.706c0.058,0.116,0.116,0.22,0.186,0.336   c0.058,0.116,0.116,0.243,0.186,0.36c0.035,0.065,0.073,0.126,0.116,0.186c0.093,0.186,0.209,0.36,0.325,0.544   c0.116,0.186,0.232,0.37,0.36,0.556c0.116,0.186,0.232,0.37,0.371,0.556c0.336,0.487,0.706,0.974,1.101,1.471   c0.22,0.278,0.452,0.556,0.683,0.845c0.91,1.06,1.877,2.069,2.897,3.024l0.661,0.626c2.04,1.895,3.839,4.035,5.353,6.371   c0.197,0.383,0.394,0.776,0.603,1.181c0.56,1.107,1.033,2.258,1.414,3.441C227.36,45.32,227.604,50.754,226.508,55.997z"/>
	
		<linearGradient id="eyeglasses_1_-i2" gradientUnits="userSpaceOnUse" x1="-5099.8359" y1="-232.3965" x2="-4759.3813" y2="-232.3965" gradientTransform="matrix(-0.0696 -0.0253 -0.0253 0.0696 -147.8787 -83.9259)">
		<stop offset="0" style="stop-color:#28306D"/>
		<stop offset="0.51" style="stop-color:#1F275F"/>
		<stop offset="1" style="stop-color:#171F51"/>
	</linearGradient>
	<path id="eyeglasses-i2" fill="url(#eyeglasses_1_-i2)" d="M194.601,25.749c0.273,0.002,0.544-0.023,0.813-0.077   c1.847-0.498,3.273-1.965,3.715-3.827c1.511,0.255,2.601,1.655,3.403,2.863c-0.544,1.097-0.835,2.301-0.845,3.526   c-0.047,1.733,0.489,3.432,1.52,4.826c0.903,1.266,2.344,2.04,3.899,2.09c0.318,0.003,0.638-0.027,0.95-0.089   c1.191-0.265,2.251-0.941,2.996-1.909c1.065-1.369,1.639-3.055,1.634-4.789c0.043-3.778-2.386-6.881-5.42-6.917   c-1.555,0.015-3.014,0.754-3.945,1.998c-0.114,0.14-0.201,0.303-0.302,0.454c-0.808-1.406-2.132-2.445-3.692-2.893   c0.063-0.369,0.097-0.74,0.101-1.114c0.038-3.258-2.063-5.934-4.685-5.966h-0.001c-2.621-0.027-4.785,2.596-4.825,5.854   C189.877,23.04,191.978,25.716,194.601,25.749z M202.549,28.243c-0.008-1.54,0.5-3.038,1.442-4.255   c0.618-0.811,1.503-1.38,2.498-1.606c0.251-0.051,0.509-0.075,0.766-0.072c2.557,0.03,4.603,2.741,4.565,6.044   c0.008,1.54-0.5,3.038-1.442,4.255c-1.24,1.778-3.686,2.211-5.463,0.972c-0.404-0.281-0.752-0.637-1.025-1.049   C202.976,31.293,202.504,29.783,202.549,28.243z M190.78,19.792c0.032-2.781,1.798-5.025,3.949-4.999   c2.145,0.025,3.863,2.31,3.831,5.092c-0.033,2.782-1.799,5.023-3.949,4.999C192.464,24.858,190.747,22.575,190.78,19.792z"/>
	<path id="hair-i2" fill="#23286B" d="M275.301,63.555c-2.964-6.394-9.204-10.869-12.186-16.989c-1.269-3.622-1.744-7.472-1.395-11.294   c0.603-11.747-3.453-18.327-4.809-20.168c-0.018-0.038-0.04-0.073-0.07-0.104c-3.38-5.913-8.893-10.31-15.411-12.291   c-15.04-4.588-35.213-5.549-39.581,15.268c1.989-3.503,4.752-6.506,8.076-8.781c-0.146,0.391-3.118,8.312,6.745,18.306   c1.783,2.936,3.656,5.862,5.188,8.94c6.882,13.821,1.27,28.542-9.893,38.09c-0.425,0.364,0.191,0.977,0.614,0.614   c8.742-7.477,14.744-18.314,13.006-30.118c-0.825-5.598-3.651-10.45-6.573-15.23c1.807,1.737,3.406,3.676,4.772,5.777   c0.197,0.383,0.394,0.776,0.603,1.182c0.56,1.107,1.033,2.258,1.414,3.441c2.537,7.692,1.182,15.952-1.124,22.775   c-1.773,5.228-4.198,10.208-7.219,14.828c32.317,9.985,55.432,5.189,55.432,5.189c3.057-6.889,3.018-14.755-0.109-21.613   c3.998,6.202,4.878,13.913,2.378,20.857c-0.181,0.53,0.659,0.757,0.838,0.23C278.242,76.312,277.993,69.525,275.301,63.555z"/>
	<polyline id="top_of_pencil-i2" fill="#ffbeb6" points="33.895,123.415 0.139,52.588 72.765,86.4 66.385,101.796 49.524,117.622    33.895,123.415  "/>
</g>
<polygon fill="#E94A47" points="0,52.374 18.447,61.071 8.552,70.445 "/>
</svg></g><!--ITEM: Illustration component 3--><g transform="translate(1522.5 581.25) rotate(0.0 -301.875 399.375)  scale(-7.094594594594595 7.062334217506631)"><svg width="85.1" height="113.1" viewBox="0.0 0.0 85.1 113.1"><g>
	<rect y="80.3" width="15.2" height="32.8" style="fill:#D6D7D8;"/>
	<rect x="23.3" y="59.4" width="15.2" height="53.7" style="fill:#A1C3FC;"/>
	<rect x="46.6" y="41.3" width="15.2" height="71.8" style="fill:#D6D7D8;"/>
	<rect x="69.9" width="15.2" height="113.1" style="fill:#D6D7D8;"/>
</g>
</svg></g><!--ITEM: Illustration component 4--><g transform="translate(1359.375 971.25) rotate(-180.0 -56.25 401.25) translate(-0.0 391.3091540689295) scale(-7.401315789473685 7.095490716180372)"><svg width="14.937844372312252" height="57.95100894056582" viewBox="0.0 55.148991059434174 14.937844372312252 57.95100894056582"><g>
	<rect width="15.2" height="113.1" style="fill:#e94a47;"/>
</g>
</svg></g></svg>